<svg width="18" height="18" viewBox="0 0 18 18" fill="none" xmlns="http://www.w3.org/2000/svg">
<path fill-rule="evenodd" clip-rule="evenodd" d="M2.83333 0.5H15.1667C16.4553 0.5 17.5 1.54467 17.5 2.83333V15.1667C17.5 16.4553 16.4553 17.5 15.1667 17.5H2.83333C1.54467 17.5 0.5 16.4553 0.5 15.1667V2.83333C0.5 1.54467 1.54467 0.5 2.83333 0.5ZM2.83333 2C2.3731 2 2 2.3731 2 2.83333V15.1667C2 15.6269 2.3731 16 2.83333 16H15.1667C15.6269 16 16 15.6269 16 15.1667V2.83333C16 2.3731 15.6269 2 15.1667 2H2.83333Z" fill="#212121"/>
<path fill-rule="evenodd" clip-rule="evenodd" d="M5 6.25C5 5.83579 5.33579 5.5 5.75 5.5H12.5833C12.9975 5.5 13.3333 5.83579 13.3333 6.25C13.3333 6.66421 12.9975 7 12.5833 7H5.75C5.33579 7 5 6.66421 5 6.25Z" fill="#212121"/>
<path fill-rule="evenodd" clip-rule="evenodd" d="M5 11.25C5 10.8358 5.33579 10.5 5.75 10.5H9.25C9.66421 10.5 10 10.8358 10 11.25C10 11.6642 9.66421 12 9.25 12H5.75C5.33579 12 5 11.6642 5 11.25Z" fill="#212121"/>
</svg>
