<svg width="20" height="18" viewBox="0 0 20 18" fill="none" xmlns="http://www.w3.org/2000/svg">
<path fill-rule="evenodd" clip-rule="evenodd" d="M0.958252 3.33333C0.958252 1.56142 2.39467 0.125 4.16659 0.125H15.8333C17.6052 0.125 19.0416 1.56142 19.0416 3.33333V10.3333C19.0416 12.1052 17.6052 13.5417 15.8333 13.5417H11.7607C11.6674 13.5417 11.5797 13.5863 11.5248 13.6618L9.31775 16.6965C8.15475 18.2956 5.62492 17.4729 5.62492 15.4956V13.5417H4.16659C2.39467 13.5417 0.958252 12.1052 0.958252 10.3333V3.33333ZM4.16659 1.875C3.36117 1.875 2.70825 2.52792 2.70825 3.33333V10.3333C2.70825 11.1387 3.36117 11.7917 4.16659 11.7917H7.37492V15.4956C7.37492 15.7781 7.73632 15.8956 7.90247 15.6672L10.1095 12.6325C10.4937 12.1042 11.1075 11.7917 11.7607 11.7917H15.8333C16.6387 11.7917 17.2916 11.1387 17.2916 10.3333V3.33333C17.2916 2.52792 16.6387 1.875 15.8333 1.875H4.16659Z" fill="#BDBDBD"/>
</svg>
