<svg width="20" height="17" viewBox="0 0 20 17" fill="none" xmlns="http://www.w3.org/2000/svg">
<path fill-rule="evenodd" clip-rule="evenodd" d="M8.18521 2.81469C6.93229 1.56177 4.90086 1.56177 3.64794 2.81469C2.39502 4.06761 2.39502 6.09904 3.64794 7.35196L10.0414 13.7454L16.4348 7.35196C17.6877 6.09904 17.6877 4.06761 16.4348 2.81469C15.1819 1.56177 13.1504 1.56177 11.8975 2.81469L10.0414 4.67085L8.18521 2.81469ZM2.41051 1.57725C4.34684 -0.359085 7.48631 -0.359085 9.42265 1.57725L10.0414 2.19597L10.6601 1.57725C12.5964 -0.359085 15.7359 -0.359085 17.6722 1.57725C19.6086 3.51359 19.6086 6.65306 17.6722 8.5894L10.0414 16.2203L2.41051 8.5894C0.474167 6.65306 0.474167 3.51359 2.41051 1.57725Z" fill="#BDBDBD"/>
</svg>
