<svg width="16" height="18" viewBox="0 0 16 18" fill="none" xmlns="http://www.w3.org/2000/svg">
<path fill-rule="evenodd" clip-rule="evenodd" d="M3.00008 0.833984H9.66675C10.9554 0.833984 12.0001 1.87865 12.0001 3.16732V14.834C12.0001 16.1227 10.9554 17.1673 9.66675 17.1673H3.00008C1.71142 17.1673 0.666748 16.1226 0.666748 14.834V3.16732C0.666748 1.87865 1.71142 0.833984 3.00008 0.833984ZM3.00008 2.33398C2.53984 2.33398 2.16675 2.70708 2.16675 3.16732V14.834C2.16675 15.2942 2.53984 15.6673 3.00008 15.6673H9.66675C10.127 15.6673 10.5001 15.2942 10.5001 14.834V3.16732C10.5001 2.70708 10.127 2.33398 9.66675 2.33398H3.00008Z" fill="#212121"/>
<path fill-rule="evenodd" clip-rule="evenodd" d="M10.5001 3.50065H13.1667C14.4554 3.50065 15.5001 4.54532 15.5001 5.83398V12.1673C15.5001 13.456 14.4554 14.5007 13.1667 14.5007H10.5001V3.50065ZM13.1667 13.0007C13.2853 13.0007 13.398 12.9759 13.5001 12.9313C13.7944 12.8027 14.0001 12.509 14.0001 12.1673V5.83398C14.0001 5.49226 13.7944 5.19858 13.5001 5.06999C13.398 5.02539 13.2853 5.00065 13.1667 5.00065H12.0001V13.0007H13.1667Z" fill="#212121"/>
</svg>
