<svg width="180" height="54" viewBox="0 0 180 54" fill="none" xmlns="http://www.w3.org/2000/svg">
<path d="M173.333 53.3333H6.66667C3 53.3333 0 50.3333 0 46.6667V6.66667C0 3 3 0 6.66667 0H173.333C177 0 180 3 180 6.66667V46.6667C180 50.3333 177 53.3333 173.333 53.3333Z" fill="black"/>
<path d="M173.333 1.06667C176.427 1.06667 178.933 3.57333 178.933 6.66667V46.6667C178.933 49.76 176.427 52.2667 173.333 52.2667H6.66667C3.57333 52.2667 1.06667 49.76 1.06667 46.6667V6.66667C1.06667 3.57333 3.57333 1.06667 6.66667 1.06667H173.333ZM173.333 0H6.66667C3 0 0 3 0 6.66667V46.6667C0 50.3333 3 53.3333 6.66667 53.3333H173.333C177 53.3333 180 50.3333 180 46.6667V6.66667C180 3 177 0 173.333 0Z" fill="#A6A6A6"/>
<path d="M59.9321 18.132C59.3241 18.132 58.7601 18.02 58.2401 17.796C57.7201 17.572 57.2601 17.264 56.8601 16.872C56.4681 16.472 56.1601 16.012 55.9361 15.492C55.7201 14.964 55.6121 14.4 55.6121 13.8C55.6121 13.2 55.7201 12.64 55.9361 12.12C56.1601 11.592 56.4681 11.132 56.8601 10.74C57.2521 10.34 57.7081 10.028 58.2281 9.80402C58.7481 9.58002 59.3121 9.46802 59.9201 9.46802C60.5921 9.46802 61.2241 9.59602 61.8161 9.85202C62.4161 10.108 62.9161 10.48 63.3161 10.968L62.3081 11.868C62.0201 11.508 61.6681 11.236 61.2521 11.052C60.8361 10.86 60.3921 10.764 59.9201 10.764C59.5121 10.764 59.1361 10.84 58.7921 10.992C58.4481 11.144 58.1481 11.36 57.8921 11.64C57.6441 11.912 57.4481 12.232 57.3041 12.6C57.1601 12.968 57.0881 13.368 57.0881 13.8C57.0881 14.232 57.1601 14.636 57.3041 15.012C57.4481 15.38 57.6481 15.7 57.9041 15.972C58.1681 16.244 58.4721 16.46 58.8161 16.62C59.1601 16.772 59.5401 16.848 59.9561 16.848C60.4041 16.848 60.8081 16.756 61.1681 16.572C61.5281 16.38 61.8241 16.116 62.0561 15.78C62.2961 15.444 62.4441 15.068 62.5001 14.652H60.0041V13.416H64.0241V13.884C64.0241 14.492 63.9201 15.052 63.7121 15.564C63.5121 16.076 63.2281 16.528 62.8601 16.92C62.4921 17.304 62.0601 17.604 61.5641 17.82C61.0681 18.028 60.5241 18.132 59.9321 18.132Z" fill="white"/>
<path d="M65.3892 18V9.60002H71.4012V10.824H66.8292V13.164H70.0212V14.364H66.8292V16.776H71.4492V18H65.3892Z" fill="white"/>
<path d="M74.9367 18V10.848H72.1287V9.60002H79.1847V10.848H76.3767V18H74.9367Z" fill="white"/>
<path d="M82.6443 18V9.60002H84.0843V18H82.6443Z" fill="white"/>
<path d="M87.9042 18V10.848H85.0962V9.60002H92.1522V10.848H89.3442V18H87.9042Z" fill="white"/>
<path d="M99.5358 18.132C98.9438 18.132 98.3878 18.024 97.8678 17.808C97.3558 17.584 96.9038 17.276 96.5118 16.884C96.1278 16.484 95.8278 16.024 95.6118 15.504C95.3958 14.976 95.2878 14.408 95.2878 13.8C95.2878 13.192 95.3958 12.628 95.6118 12.108C95.8278 11.58 96.1278 11.12 96.5118 10.728C96.9038 10.328 97.3558 10.02 97.8678 9.80402C98.3878 9.58002 98.9438 9.46802 99.5358 9.46802C100.128 9.46802 100.68 9.58002 101.192 9.80402C101.712 10.02 102.164 10.328 102.548 10.728C102.94 11.12 103.244 11.58 103.46 12.108C103.676 12.628 103.784 13.192 103.784 13.8C103.784 14.408 103.676 14.976 103.46 15.504C103.244 16.024 102.94 16.484 102.548 16.884C102.164 17.276 101.712 17.584 101.192 17.808C100.68 18.024 100.128 18.132 99.5358 18.132ZM99.5358 16.836C99.9278 16.836 100.292 16.76 100.628 16.608C100.964 16.456 101.256 16.244 101.504 15.972C101.76 15.692 101.956 15.368 102.092 15C102.236 14.632 102.308 14.232 102.308 13.8C102.308 13.368 102.236 12.968 102.092 12.6C101.956 12.232 101.76 11.912 101.504 11.64C101.256 11.36 100.964 11.144 100.628 10.992C100.292 10.84 99.9278 10.764 99.5358 10.764C99.1438 10.764 98.7798 10.84 98.4438 10.992C98.1078 11.144 97.8118 11.36 97.5558 11.64C97.2998 11.912 97.0998 12.232 96.9558 12.6C96.8198 12.968 96.7518 13.368 96.7518 13.8C96.7518 14.232 96.8198 14.632 96.9558 15C97.0998 15.368 97.2998 15.692 97.5558 15.972C97.8118 16.244 98.1078 16.456 98.4438 16.608C98.7798 16.76 99.1438 16.836 99.5358 16.836Z" fill="white"/>
<path d="M105.17 18V9.60002H106.574L110.954 15.708L110.93 9.60002H112.286V18H111.002L106.502 11.724L106.526 18H105.17Z" fill="white"/>
<path d="M90.8533 29.0001C87.72 29.0001 85.16 31.3867 85.16 34.6667C85.16 37.9334 87.72 40.3334 90.8533 40.3334C93.9866 40.3334 96.5466 37.9334 96.5466 34.6667C96.5466 31.3867 93.9866 29.0001 90.8533 29.0001ZM90.8533 38.1067C89.1333 38.1067 87.6533 36.6934 87.6533 34.6667C87.6533 32.6267 89.1333 31.2267 90.8533 31.2267C92.5733 31.2267 94.0533 32.6267 94.0533 34.6667C94.0533 36.6934 92.56 38.1067 90.8533 38.1067ZM78.4266 29.0001C75.2933 29.0001 72.7333 31.3867 72.7333 34.6667C72.7333 37.9334 75.2933 40.3334 78.4266 40.3334C81.56 40.3334 84.12 37.9334 84.12 34.6667C84.12 31.3867 81.56 29.0001 78.4266 29.0001ZM78.4266 38.1067C76.7066 38.1067 75.2266 36.6934 75.2266 34.6667C75.2266 32.6267 76.7066 31.2267 78.4266 31.2267C80.1466 31.2267 81.6266 32.6267 81.6266 34.6667C81.6266 36.6934 80.1466 38.1067 78.4266 38.1067ZM63.6533 30.7467V33.1467H69.4133C69.24 34.4934 68.7866 35.4934 68.1066 36.1734C67.2666 37.0134 65.96 37.9334 63.6666 37.9334C60.12 37.9334 57.3466 35.0801 57.3466 31.5334C57.3466 27.9867 60.12 25.1334 63.6666 25.1334C65.5733 25.1334 66.9733 25.8801 68 26.8534L69.6933 25.1601C68.2533 23.7867 66.3466 22.7334 63.6533 22.7334C58.8 22.7334 54.72 26.6801 54.72 31.5467C54.72 36.4001 58.8 40.3601 63.6533 40.3601C66.28 40.3601 68.2533 39.5067 69.8 37.8934C71.3866 36.3067 71.88 34.0667 71.88 32.2667C71.88 31.7067 71.84 31.1867 71.7466 30.7601H63.6533V30.7467ZM124.067 32.6134C123.6 31.3467 122.16 29.0001 119.213 29.0001C116.293 29.0001 113.867 31.2934 113.867 34.6667C113.867 37.8401 116.267 40.3334 119.493 40.3334C122.093 40.3334 123.6 38.7467 124.213 37.8267L122.28 36.5334C121.64 37.4801 120.76 38.1067 119.493 38.1067C118.227 38.1067 117.32 37.5334 116.747 36.3867L124.333 33.2534L124.067 32.6134ZM116.333 34.5067C116.267 32.3201 118.027 31.2001 119.293 31.2001C120.28 31.2001 121.12 31.6934 121.4 32.4001L116.333 34.5067ZM110.173 40.0001H112.667V23.3334H110.173V40.0001ZM106.093 30.2667H106C105.44 29.6001 104.373 29.0001 103.013 29.0001C100.173 29.0001 97.5733 31.4934 97.5733 34.6934C97.5733 37.8667 100.173 40.3467 103.013 40.3467C104.36 40.3467 105.44 39.7467 106 39.0534H106.08V39.8667C106.08 42.0401 104.92 43.2001 103.053 43.2001C101.533 43.2001 100.587 42.1067 100.2 41.1867L98.0266 42.0934C98.6533 43.6001 100.307 45.4401 103.053 45.4401C105.973 45.4401 108.44 43.7201 108.44 39.5334V29.3467H106.08V30.2667H106.093ZM103.227 38.1067C101.507 38.1067 100.067 36.6667 100.067 34.6934C100.067 32.6934 101.507 31.2401 103.227 31.2401C104.92 31.2401 106.253 32.7067 106.253 34.6934C106.267 36.6667 104.933 38.1067 103.227 38.1067ZM135.747 23.3334H129.787V40.0001H132.28V33.6801H135.76C138.52 33.6801 141.227 31.6801 141.227 28.5067C141.213 25.3334 138.493 23.3334 135.747 23.3334ZM135.8 31.3601H132.267V25.6401H135.8C137.667 25.6401 138.72 27.1867 138.72 28.4934C138.72 29.8001 137.667 31.3601 135.8 31.3601ZM151.187 28.9734C149.387 28.9734 147.52 29.7734 146.747 31.5201L148.96 32.4401C149.427 31.5201 150.307 31.2134 151.227 31.2134C152.507 31.2134 153.827 31.9867 153.84 33.3601V33.5334C153.387 33.2801 152.427 32.8934 151.24 32.8934C148.853 32.8934 146.44 34.2001 146.44 36.6401C146.44 38.8667 148.387 40.3067 150.573 40.3067C152.24 40.3067 153.173 39.5601 153.747 38.6801H153.827V39.9601H156.227V33.5734C156.24 30.6267 154.027 28.9734 151.187 28.9734ZM150.88 38.1067C150.067 38.1067 148.933 37.6934 148.933 36.6934C148.933 35.4134 150.347 34.9201 151.573 34.9201C152.667 34.9201 153.187 35.1601 153.84 35.4801C153.653 37.0134 152.32 38.1067 150.88 38.1067ZM164.987 29.3334L162.133 36.5601H162.053L159.093 29.3334H156.413L160.853 39.4401L158.32 45.0534H160.92L167.76 29.3334H164.987ZM142.587 40.0001H145.08V23.3334H142.587V40.0001Z" fill="white"/>
<path d="M27.6265 25.8936L13.4265 40.9602C13.4265 40.9602 13.4265 40.9602 13.4265 40.9736C13.8665 42.6136 15.3598 43.8136 17.1332 43.8136C17.8398 43.8136 18.5065 43.6269 19.0798 43.2802L19.1198 43.2536L35.0932 34.0402L27.6265 25.8936Z" fill="#EA4335"/>
<path d="M41.9866 23.3334L41.9733 23.3201L35.08 19.3201L27.3066 26.2401L35.1066 34.0401L41.9733 30.0801C43.1733 29.4267 43.9866 28.1601 43.9866 26.7067C43.9866 25.2401 43.1733 23.9867 41.9866 23.3334Z" fill="#FBBC04"/>
<path d="M13.4265 12.3734C13.3465 12.6934 13.2932 13.0134 13.2932 13.3601V39.9867C13.2932 40.3334 13.3332 40.6534 13.4265 40.9734L28.1065 26.2934L13.4265 12.3734Z" fill="#4285F4"/>
<path d="M27.7332 26.6666L35.0798 19.3199L19.1198 10.0666C18.5465 9.7199 17.8665 9.5199 17.1332 9.5199C15.3598 9.5199 13.8665 10.7332 13.4265 12.3599L27.7332 26.6666Z" fill="#34A853"/>
</svg>
