<?xml version="1.0" encoding="utf-8"?><svg viewBox="0 0 20 18" xmlns="http://www.w3.org/2000/svg" xmlns:xlink="http://www.w3.org/1999/xlink"><style>:root>svg{display:none}:root>svg:target{display:block}</style><svg fill="none" viewBox="0 0 20 17" id="icon-heart" xmlns="http://www.w3.org/2000/svg"><path fill-rule="evenodd" clip-rule="evenodd" d="M8.185 2.815a3.208 3.208 0 0 0-4.537 4.537l6.393 6.393 6.394-6.393a3.208 3.208 0 0 0-4.537-4.537L10.04 4.67 8.185 2.815ZM2.411 1.577a4.958 4.958 0 0 1 7.012 0l.618.619.62-.619a4.958 4.958 0 1 1 7.011 7.012l-7.63 7.631L2.41 8.59a4.958 4.958 0 0 1 0-7.013Z" fill="#BDBDBD"/></svg><svg fill="none" viewBox="0 0 20 17" id="icon-heart_filled" xmlns="http://www.w3.org/2000/svg"><path fill-rule="evenodd" clip-rule="evenodd" d="M2.41 1.577a4.958 4.958 0 0 1 7.013 0l.619.619.618-.619a4.958 4.958 0 0 1 7.012 7.012l-7.63 7.631L2.41 8.59a4.958 4.958 0 0 1 0-7.013Z" fill="#F24822"/></svg><svg fill="none" viewBox="0 0 18 18" id="icon-lists" xmlns="http://www.w3.org/2000/svg"><path fill-rule="evenodd" clip-rule="evenodd" d="M2.833.5h12.334A2.333 2.333 0 0 1 17.5 2.833v12.334a2.333 2.333 0 0 1-2.333 2.333H2.833A2.333 2.333 0 0 1 .5 15.167V2.833A2.333 2.333 0 0 1 2.833.5Zm0 1.5A.833.833 0 0 0 2 2.833v12.334c0 .46.373.833.833.833h12.334c.46 0 .833-.373.833-.833V2.833A.833.833 0 0 0 15.167 2H2.833Z" fill="#212121"/><path fill-rule="evenodd" clip-rule="evenodd" d="M5 6.25a.75.75 0 0 1 .75-.75h6.833a.75.75 0 0 1 0 1.5H5.75A.75.75 0 0 1 5 6.25ZM5 11.25a.75.75 0 0 1 .75-.75h3.5a.75.75 0 0 1 0 1.5h-3.5a.75.75 0 0 1-.75-.75Z" fill="#212121"/></svg><svg fill="none" viewBox="0 0 18 4" id="icon-menu" xmlns="http://www.w3.org/2000/svg"><path d="M14 2a2 2 0 1 1 4 0 2 2 0 0 1-4 0ZM7 2a2 2 0 1 1 4 0 2 2 0 0 1-4 0ZM0 2a2 2 0 1 1 4 0 2 2 0 0 1-4 0Z" fill="#333"/></svg><svg fill="none" viewBox="0 0 20 18" id="icon-message" xmlns="http://www.w3.org/2000/svg"><path fill-rule="evenodd" clip-rule="evenodd" d="M.958 3.333A3.208 3.208 0 0 1 4.167.125h11.666a3.208 3.208 0 0 1 3.209 3.208v7a3.208 3.208 0 0 1-3.209 3.209h-4.072a.292.292 0 0 0-.236.12l-2.207 3.034c-1.163 1.6-3.693.777-3.693-1.2v-1.954H4.167a3.208 3.208 0 0 1-3.209-3.209v-7Zm3.209-1.458c-.806 0-1.459.653-1.459 1.458v7c0 .806.653 1.459 1.459 1.459h3.208v3.704c0 .282.361.4.527.171l2.208-3.034c.384-.529.998-.841 1.65-.841h4.073c.806 0 1.459-.653 1.459-1.459v-7c0-.805-.653-1.458-1.459-1.458H4.167Z" fill="#BDBDBD"/></svg><svg fill="none" viewBox="0 0 16 18" id="icon-posters" xmlns="http://www.w3.org/2000/svg"><path fill-rule="evenodd" clip-rule="evenodd" d="M3 .834h6.667A2.333 2.333 0 0 1 12 3.167v11.667a2.333 2.333 0 0 1-2.333 2.333H3a2.333 2.333 0 0 1-2.333-2.333V3.167A2.333 2.333 0 0 1 3 .834Zm0 1.5a.833.833 0 0 0-.833.833v11.667c0 .46.373.833.833.833h6.667c.46 0 .833-.373.833-.833V3.167a.833.833 0 0 0-.833-.833H3Z" fill="#212121"/><path fill-rule="evenodd" clip-rule="evenodd" d="M10.5 3.5h2.667A2.333 2.333 0 0 1 15.5 5.835v6.333a2.333 2.333 0 0 1-2.333 2.334H10.5v-11Zm2.667 9.5a.83.83 0 0 0 .833-.833V5.834a.834.834 0 0 0-.833-.833H12v8h1.167Z" fill="#212121"/></svg></svg>